<svg xmlns="http://www.w3.org/2000/svg" viewBox="0 0 1200 675" role="img" aria-label="上下文体量的软件：完整 CRM 全应用不到 150k token，其中业务逻辑不到 100k，UI 约 50k">
  <defs>
    <linearGradient id="bg" x1="0" x2="1" y1="0" y2="1">
      <stop stop-color="#f8faf7"/>
      <stop offset=".55" stop-color="#eef7f2"/>
      <stop offset="1" stop-color="#fff3df"/>
    </linearGradient>
    <linearGradient id="fill" x1="0" x2="1" y1="0" y2="0">
      <stop stop-color="#0f766e"/>
      <stop offset="1" stop-color="#14b8a6"/>
    </linearGradient>
    <linearGradient id="ui" x1="0" x2="1" y1="0" y2="0">
      <stop stop-color="#f4b65d"/>
      <stop offset="1" stop-color="#ffd28a"/>
    </linearGradient>
    <filter id="shadow" x="-20%" y="-20%" width="140%" height="150%">
      <feDropShadow dx="0" dy="18" stdDeviation="22" flood-color="#24342f" flood-opacity=".16"/>
    </filter>
    <style>
      text{font-family:-apple-system,BlinkMacSystemFont,"PingFang SC","Microsoft YaHei",sans-serif;fill:#173a36}
      .tiny{font-size:16px;fill:#5d736b}
      .label{font-size:18px;font-weight:720}
      .soft{fill:#5d736b;font-size:15px}
      .mono{font-family:ui-monospace,"SF Mono",Menlo,monospace}
      .barLight{fill:#ffffff;font-size:15px;font-weight:720}
      .barDark{fill:#173a36;font-size:15px;font-weight:720}
    </style>
  </defs>
  <rect width="1200" height="675" fill="url(#bg)"/>

  <text x="96" y="76" font-size="34" font-weight="780">上下文体量的软件</text>
  <text x="96" y="111" class="tiny">完整 CRM 全应用不到 150k token——业务逻辑不到 100k，UI 约增加 50k</text>

  <!-- context window -->
  <rect x="96" y="170" width="1008" height="220" rx="18" fill="#ffffff" stroke="#c7d6cf" stroke-width="2" filter="url(#shadow)"/>
  <text x="120" y="206" class="label">一个智能体上下文窗口</text>
  <text x="984" y="206" class="soft mono" text-anchor="end">200k tokens</text>

  <!-- token ruler -->
  <rect x="120" y="252" width="960" height="76" rx="10" fill="#f1f6f3" stroke="#dbe7e0"/>
  <rect x="120" y="252" width="480" height="76" rx="10" fill="url(#fill)"/>
  <rect x="600" y="252" width="240" height="76" fill="url(#ui)"/>
  <text x="360" y="296" class="barLight" text-anchor="middle">业务逻辑 &lt;100k</text>
  <text x="720" y="296" class="barDark" text-anchor="middle">UI ≈50k</text>
  <text x="1064" y="298" class="soft mono" text-anchor="end">空余 &gt;25%</text>
  <text x="120" y="356" class="soft mono">参考 app-crm ≈16k · 完整 HotCRM &lt;150k</text>

  <!-- what's inside -->
  <g class="soft">
    <rect x="96" y="430" width="232" height="64" rx="12" fill="#ffffff" stroke="#dbe7e0"/>
    <text x="212" y="458" text-anchor="middle" class="label">对象与字段</text>
    <text x="212" y="480" text-anchor="middle" class="soft">数据模型</text>

    <rect x="354" y="430" width="232" height="64" rx="12" fill="#ffffff" stroke="#dbe7e0"/>
    <text x="470" y="458" text-anchor="middle" class="label">视图与仪表盘</text>
    <text x="470" y="480" text-anchor="middle" class="soft">声明式界面</text>

    <rect x="612" y="430" width="232" height="64" rx="12" fill="#ffffff" stroke="#dbe7e0"/>
    <text x="728" y="458" text-anchor="middle" class="label">流程与动作</text>
    <text x="728" y="480" text-anchor="middle" class="soft">自动化</text>

    <rect x="870" y="430" width="234" height="64" rx="12" fill="#ffffff" stroke="#dbe7e0"/>
    <text x="987" y="458" text-anchor="middle" class="label">权限</text>
    <text x="987" y="480" text-anchor="middle" class="soft">谁能看到什么</text>
  </g>

  <text x="96" y="560" class="tiny">类型化元数据承载业务逻辑与 UI；运行时派生数据库、REST API、渲染后的界面和 MCP server。</text>
  <text x="96" y="610" class="soft mono">参考 app-crm：31 个文件 · 1792 行 ≈16k token</text>
</svg>
