<svg xmlns="http://www.w3.org/2000/svg" viewBox="0 0 1000 540" role="img" aria-label="改动系统的难度随时间变化：生成代码的难度指数级上升，生成元数据的难度保持平稳">
  <defs>
    <style>
      text{font-family:-apple-system,BlinkMacSystemFont,"Segoe UI",sans-serif;fill:#173a36}
      .ax{stroke:#c4d3cc;stroke-width:1.5}.gl{stroke:#e6efe9;stroke-width:1}
      .lbl{font-size:15px;fill:#5d736b}.cap{font-size:14px;fill:#5d736b}
    </style>
  </defs>
  <rect width="1000" height="540" fill="#ffffff"/>
  <text x="60" y="50" font-size="22" font-weight="760">同一套系统，改动它的难度随时间怎么走</text>
  <text x="60" y="78" class="cap">纵轴：让系统安全地改一处需要付出的代价 · 横轴：上线后的时间</text>

  <!-- plot area: x 110..900, y 130..440 -->
  <g>
    <line class="gl" x1="110" y1="170" x2="900" y2="170"/>
    <line class="gl" x1="110" y1="240" x2="900" y2="240"/>
    <line class="gl" x1="110" y1="310" x2="900" y2="310"/>
    <line class="gl" x1="110" y1="380" x2="900" y2="380"/>
    <line class="ax" x1="110" y1="130" x2="110" y2="440"/>
    <line class="ax" x1="110" y1="440" x2="900" y2="440"/>
  </g>
  <!-- x labels -->
  <g class="lbl" text-anchor="middle">
    <text x="170" y="466">第 1 周</text>
    <text x="370" y="466">1 个月</text>
    <text x="600" y="466">6 个月</text>
    <text x="850" y="466">12 个月</text>
  </g>
  <text x="40" y="290" class="lbl" transform="rotate(-90 40 290)" text-anchor="middle">改动代价</text>

  <!-- metadata: flat low line -->
  <path d="M150 400 C 320 396, 560 392, 860 388" fill="none" stroke="#1f6b4a" stroke-width="4"/>
  <circle cx="150" cy="400" r="5" fill="#1f6b4a"/>
  <circle cx="860" cy="388" r="5" fill="#1f6b4a"/>

  <!-- code-gen: low then exponential rise -->
  <path d="M150 405 C 330 392, 500 350, 620 250 C 700 184, 780 156, 860 150" fill="none" stroke="#9a3b1f" stroke-width="4"/>
  <circle cx="150" cy="405" r="5" fill="#9a3b1f"/>
  <circle cx="860" cy="150" r="5" fill="#9a3b1f"/>

  <!-- inflection annotation -->
  <line x1="600" y1="130" x2="600" y2="440" stroke="#e8b04b" stroke-width="2" stroke-dasharray="5 6"/>
  <text x="610" y="150" font-size="14" fill="#9a6212">6–12 个月：理解债集中爆发</text>

  <!-- start annotation -->
  <text x="150" y="430" class="cap" text-anchor="middle">第一版都很快</text>

  <!-- legend -->
  <g transform="translate(150 500)">
    <rect width="22" height="6" y="-4" rx="3" fill="#9a3b1f"/>
    <text x="32" y="2" class="lbl">AI 生成代码：每次改动都缺上下文，债务复利累积</text>
  </g>
  <g transform="translate(150 522)">
    <rect width="22" height="6" y="-4" rx="3" fill="#1f6b4a"/>
    <text x="32" y="2" class="lbl">AI 生成元数据：定义是声明式的，改动始终可读、可回滚</text>
  </g>
</svg>
