<svg xmlns="http://www.w3.org/2000/svg" viewBox="0 0 1200 675" role="img" aria-label="五家平台各自持有的企业本体，够得到却带不走，与一份你能带走的开放定义">
  <defs>
    <linearGradient id="bg" x1="0" x2="1" y1="0" y2="1">
      <stop stop-color="#f8faf7"/>
      <stop offset=".55" stop-color="#eef7f2"/>
      <stop offset="1" stop-color="#fff3df"/>
    </linearGradient>
    <filter id="shadow" x="-20%" y="-20%" width="140%" height="150%">
      <feDropShadow dx="0" dy="16" stdDeviation="20" flood-color="#24342f" flood-opacity=".15"/>
    </filter>
    <style>
      text{font-family:-apple-system,BlinkMacSystemFont,"Segoe UI",sans-serif;fill:#173a36}
      .tiny{font-size:16px;fill:#5d736b}.label{font-size:18px;font-weight:720}.invert{fill:#eafff6}.soft{fill:#5d736b;font-size:15px}.chip{font-size:16px;font-weight:650}
      .onDark{fill:#a9c4ba;font-size:13px}.accent{fill:#e8b04b}.code{fill:#2c4a43;font-family:ui-monospace,Menlo,monospace;font-size:14px}
    </style>
  </defs>
  <rect width="1200" height="675" fill="url(#bg)"/>

  <text x="96" y="72" font-size="34" font-weight="780">竞赛已经跑完：五家平台都交付了本体</text>
  <text x="96" y="106" class="tiny">同一个判断，五个答案——MCP 把门打开了，定义还留在里面</text>

  <!-- Left: five platform-owned ontologies -->
  <g transform="translate(86 168)">
    <text x="0" y="-8" class="soft">各自平台里的本体</text>

    <g filter="url(#shadow)">
      <rect width="420" height="72" rx="14" fill="#22433d"/>
      <text x="24" y="30" class="chip invert">Microsoft Fabric IQ</text>
      <text x="24" y="55" class="onDark">2025 年 11 月 · 预览 · Ontology MCP</text>
      <g transform="translate(360 13)"><rect y="14" width="40" height="32" rx="7" class="accent"/><path d="M7 16 v-5 a13 13 0 0 1 26 0 v5" fill="none" stroke="#e8b04b" stroke-width="7"/></g>
    </g>

    <g filter="url(#shadow)" transform="translate(0 87)">
      <rect width="420" height="72" rx="14" fill="#294942"/>
      <text x="24" y="30" class="chip invert">Snowflake 语义视图</text>
      <text x="24" y="55" class="onDark">2026 年 2 月 · GA · Autopilot 自动起草</text>
      <g transform="translate(360 13)"><rect y="14" width="40" height="32" rx="7" class="accent"/><path d="M7 16 v-5 a13 13 0 0 1 26 0 v5" fill="none" stroke="#e8b04b" stroke-width="7"/></g>
    </g>

    <g filter="url(#shadow)" transform="translate(0 174)">
      <rect width="420" height="72" rx="14" fill="#2f5048"/>
      <text x="24" y="30" class="chip invert">Google Looker · Knowledge Catalog</text>
      <text x="24" y="55" class="onDark">Next '26 · BI Agents 接语义图谱</text>
      <g transform="translate(360 13)"><rect y="14" width="40" height="32" rx="7" class="accent"/><path d="M7 16 v-5 a13 13 0 0 1 26 0 v5" fill="none" stroke="#e8b04b" stroke-width="7"/></g>
    </g>

    <g filter="url(#shadow)" transform="translate(0 261)">
      <rect width="420" height="72" rx="14" fill="#35564f"/>
      <text x="24" y="30" class="chip invert">Databricks Unity Catalog</text>
      <text x="24" y="55" class="onDark">2026 年 GA · Business Semantics</text>
      <g transform="translate(360 13)"><rect y="14" width="40" height="32" rx="7" class="accent"/><path d="M7 16 v-5 a13 13 0 0 1 26 0 v5" fill="none" stroke="#e8b04b" stroke-width="7"/></g>
    </g>

    <g filter="url(#shadow)" transform="translate(0 348)">
      <rect width="420" height="72" rx="14" fill="#3b5d55"/>
      <text x="24" y="30" class="chip invert">Palantir Foundry Ontology</text>
      <text x="24" y="55" class="onDark">Ontology MCP GA · 2026 年 6 月 16 日当周</text>
      <g transform="translate(360 13)"><rect y="14" width="40" height="32" rx="7" class="accent"/><path d="M7 16 v-5 a13 13 0 0 1 26 0 v5" fill="none" stroke="#e8b04b" stroke-width="7"/></g>
    </g>
  </g>

  <!-- center -->
  <g transform="translate(540 368)">
    <text x="0" y="0" font-size="40" font-weight="800" class="accent">?</text>
    <path d="M28 -12 h62" stroke="#e8b04b" stroke-width="6" stroke-linecap="round"/>
    <path d="M82 -24 l16 12 -16 12" fill="none" stroke="#e8b04b" stroke-width="6" stroke-linecap="round" stroke-linejoin="round"/>
  </g>

  <!-- Right: one open portable definition -->
  <g transform="translate(674 168)" filter="url(#shadow)">
    <rect width="440" height="420" rx="22" fill="#ffffff"/>
    <text x="36" y="52" class="label">你仓库里的一份开放定义</text>
    <text x="36" y="78" class="soft">对象 · 关系 · 权限 · 流程 · API · AI 工具</text>
    <g>
      <rect x="36" y="100" width="368" height="92" rx="12" fill="#f0f7f3"/>
      <text x="56" y="128" class="code">ObjectSchema.create({</text>
      <text x="76" y="152" class="code">name: 'crm_customer',</text>
      <text x="76" y="176" class="code">fields: { name, tax_id }</text>
    </g>
    <g stroke="#7fae9f" stroke-width="2.5" fill="none">
      <path d="M94 192 v40"/><path d="M222 192 v40"/><path d="M350 192 v40"/>
    </g>
    <g font-size="15">
      <rect x="36" y="236" width="116" height="40" rx="20" fill="#22433d"/><text x="94" y="261" class="invert" text-anchor="middle">Agent</text>
      <rect x="164" y="236" width="116" height="40" rx="20" fill="#22433d"/><text x="222" y="261" class="invert" text-anchor="middle">应用</text>
      <rect x="292" y="236" width="116" height="40" rx="20" fill="#22433d"/><text x="350" y="261" class="invert" text-anchor="middle">审计</text>
    </g>
    <text x="36" y="318" class="soft">可 diff · 可迁移 · 任何 agent 都能读懂</text>
    <text x="36" y="352" class="soft">一条命令起步，跑在你自己的服务器上</text>
    <text x="36" y="386" class="soft">读取通道开放——定义还是你的</text>
  </g>
</svg>
